<svg width="1233" height="260" viewBox="0 0 1233 260" fill="none" xmlns="http://www.w3.org/2000/svg">
<rect width="1233" height="260" fill="#E5E5E5"/>
<rect x="264" y="-180" width="107" height="194" fill="#4302AC"/>
<path d="M180.55 -123.498L213.389 -111.338L240.754 -105.664H275.157L330.67 -111.338H390.875L484.7 -101.611L633.256 -81.3447L720.044 -74.8596L860 -81.3447V204H118V-177L180.55 -123.498Z" fill="#6E6CD6" stroke="#6E6CD6"/>
<ellipse cx="61" cy="-93.5" rx="123" ry="127.5" fill="#6E23E8"/>
<rect x="69" y="-93" width="115" height="277" fill="#6E23E8"/>
<rect x="-171" y="-170" width="258" height="411" fill="#7230FF"/>
<ellipse cx="936.5" cy="67" rx="120.5" ry="127" fill="#621AFB"/>
<ellipse cx="980" cy="50.5" rx="121" ry="127.5" fill="#7230FF"/>
<path d="M405 66.3845C406.012 66.3845 407.022 66.4125 408.033 66.4125C409.202 66.4125 410.375 66.4415 411.54 66.3519C412.913 66.2463 414.277 66.0704 415.64 65.9027C417.105 65.7226 418.579 65.5689 420.023 65.2842C420.99 65.0935 421.84 64.7719 422.672 64.3097C423.017 64.118 423.36 63.9261 423.715 63.7486C424.122 63.5451 424.557 63.3817 424.96 63.1735C425.077 63.1134 425.174 62.9798 425.325 63.0026C425.537 63.0343 425.775 63.2226 425.959 63.3119C426.504 63.577 426.995 63.8619 427.58 64.0688C428.447 64.3758 429.321 64.6833 430.228 64.8894C431.39 65.1533 432.566 65.3843 433.735 65.6245C434.706 65.8241 435.647 66.0279 436.641 66.1452C438.178 66.3267 439.724 66.4238 441.265 66.5804C442.205 66.6759 443.152 66.7716 444.095 66.8415C444.736 66.889 445.365 66.9086 446 67" stroke="black" stroke-linecap="round" stroke-linejoin="round"/>
</svg>
