<svg width="43" height="6" viewBox="0 0 43 6" fill="none" xmlns="http://www.w3.org/2000/svg">
<path d="M1 4.38453C2.01157 4.38453 3.02202 4.41251 4.03344 4.41251C5.20195 4.41251 6.37484 4.44152 7.54006 4.3519C8.91268 4.24632 10.2767 4.0704 11.6404 3.90273C13.1052 3.72264 14.5792 3.56886 16.0233 3.28416C16.9905 3.09347 17.8398 2.7719 18.6717 2.30967C19.0166 2.11801 19.3601 1.92613 19.7152 1.7486C20.1224 1.54506 20.5571 1.3817 20.9602 1.17355C21.0767 1.11339 21.1739 0.979814 21.3255 1.00258C21.5367 1.03432 21.775 1.22257 21.9588 1.31187C22.5044 1.57698 22.9955 1.86186 23.5799 2.06877C24.4469 2.37575 25.3206 2.68327 26.2283 2.88939C27.3903 3.15326 28.566 3.38433 29.7349 3.62453C30.7059 3.82407 31.6475 4.02789 32.6406 4.14519C34.1777 4.32674 35.7243 4.42383 37.2645 4.58036C38.2046 4.6759 39.1515 4.77164 40.0947 4.84147C40.7365 4.88899 41.365 4.90858 42 5" stroke="black" stroke-linecap="round" stroke-linejoin="round"/>
</svg>
